<?xml version="1.0" encoding="iso-8859-1"?>
<!-- Generator: Adobe Illustrator 19.0.0, SVG Export Plug-In . SVG Version: 6.00 Build 0)  -->
<svg version="1.1" id="Layer_1" xmlns="http://www.w3.org/2000/svg" xmlns:xlink="http://www.w3.org/1999/xlink" x="0px" y="0px"
	 viewBox="0 0 512.001 512.001" style="enable-background:new 0 0 512.001 512.001;" xml:space="preserve">
<path style="fill:#E7EBEC;" d="M452.677,503.983c-28.336,0-51.307-22.971-51.307-51.307V59.324c0-28.336-22.97-51.307-51.307-51.307
	H93.529c0,0-0.251,317.951-0.149,444.71c0.022,28.319,22.988,51.257,51.307,51.257H452.677z"/>
<g>
	<path style="fill:#CED7D9;" d="M408.252,478.33H153.256c-18.873,0-34.18-15.279-34.205-34.152
		c-0.122-93.732,0.051-353.448,0.111-436.161H93.529c0,0-0.251,317.951-0.149,444.71c0.022,28.32,22.987,51.257,51.307,51.257
		h307.99C433.689,503.983,417.123,493.661,408.252,478.33z"/>
	<path style="fill:#CED7D9;" d="M59.324,8.017c-28.336,0-51.307,22.971-51.307,51.307s22.971,51.307,51.307,51.307h290.739V8.017
		H59.324z"/>
</g>
<g>
	<path style="fill:#B6C4C6;" d="M9.633,46.497c-1.055,4.099-1.616,8.397-1.616,12.827c0,28.336,22.971,51.307,51.307,51.307h290.739
		V84.977H59.324C35.417,84.977,15.33,68.626,9.633,46.497z"/>
	<circle style="fill:#B6C4C6;" cx="350.063" cy="59.324" r="51.307"/>
</g>
<circle style="fill:#859CA0;" cx="350.063" cy="59.324" r="25.653"/>
<circle style="fill:#B6C4C6;" cx="452.677" cy="452.676" r="51.307"/>
<circle style="fill:#859CA0;" cx="452.677" cy="452.676" r="25.653"/>
<circle style="fill:#94C54B;" cx="187.591" cy="221.795" r="59.858"/>
<circle style="fill:#F57811;" cx="307.307" cy="392.818" r="59.858"/>
<path d="M85.348,309.867c-0.001,4.427,3.586,8.018,8.015,8.019c0.001,0,0.001,0,0.002,0c4.427,0,8.016-3.588,8.017-8.015
	c0.016-64.894,0.053-134.948,0.088-191.223h248.594c17.064,0,32.457-7.251,43.29-18.823v36.46c0,4.427,3.588,8.017,8.017,8.017
	c4.428,0,8.017-3.589,8.017-8.017v-76.96C409.387,26.612,382.775,0,350.063,0H59.324C26.613,0,0.001,26.612,0.001,59.324
	s26.612,59.324,59.324,59.324h26.112C85.401,174.923,85.365,244.974,85.348,309.867z M393.353,59.324
	c0,23.871-19.42,43.29-43.29,43.29c-23.871,0-43.29-19.42-43.29-43.29s19.42-43.29,43.29-43.29
	C373.934,16.033,393.353,35.453,393.353,59.324z M16.034,59.324c0-23.871,19.42-43.29,43.29-43.29h250.239
	c-11.572,10.833-18.823,26.226-18.823,43.29s7.251,32.457,18.823,43.29H59.324C35.454,102.614,16.034,83.194,16.034,59.324z"/>
<path d="M316.393,59.324c0,18.566,15.105,33.67,33.67,33.67c18.566,0,33.67-15.105,33.67-33.67s-15.105-33.67-33.67-33.67
	C331.498,25.653,316.393,40.758,316.393,59.324z M367.7,59.324c0,9.725-7.912,17.637-17.637,17.637s-17.637-7.912-17.637-17.637
	s7.912-17.637,17.637-17.637S367.7,49.599,367.7,59.324z"/>
<path d="M452.677,393.353c-17.064,0-32.457,7.251-43.29,18.823V170.489c0-4.427-3.588-8.017-8.017-8.017
	c-4.428,0-8.017,3.589-8.017,8.017v282.188c0,12.67,4.155,25.201,11.731,35.356c2.119,2.839,4.485,5.511,7.071,7.934H144.687
	c-23.85,0-43.27-19.4-43.29-43.246c-0.024-29.671-0.029-69.82-0.022-113.913c0.001-4.428-3.587-8.018-8.016-8.018c0,0,0,0-0.001,0
	c-4.427,0-8.016,3.588-8.017,8.016c-0.007,44.099-0.002,84.254,0.022,113.929c0.026,32.68,26.639,59.267,59.324,59.267h307.99
	c32.711,0,59.324-26.612,59.324-59.324S485.388,393.353,452.677,393.353z M452.677,495.967c-23.871,0-43.29-19.42-43.29-43.29
	c0-23.871,19.42-43.29,43.29-43.29c23.871,0,43.29,19.42,43.29,43.29C495.967,476.547,476.547,495.967,452.677,495.967z"/>
<path d="M452.677,419.006c-18.566,0-33.67,15.105-33.67,33.67c0,18.566,15.105,33.67,33.67,33.67c18.566,0,33.67-15.105,33.67-33.67
	C486.347,434.111,471.243,419.006,452.677,419.006z M452.677,470.313c-9.725,0-17.637-7.912-17.637-17.637
	s7.912-17.637,17.637-17.637c9.725,0,17.637,7.912,17.637,17.637S462.402,470.313,452.677,470.313z"/>
<path d="M255.466,221.795c0-37.426-30.448-67.875-67.875-67.875s-67.875,30.449-67.875,67.875s30.449,67.875,67.875,67.875
	S255.466,259.222,255.466,221.795z M187.591,273.637c-28.585,0-51.841-23.256-51.841-51.841s23.256-51.841,51.841-51.841
	s51.841,23.256,51.841,51.841S216.177,273.637,187.591,273.637z"/>
<path d="M207.575,199.025l-28.535,28.536l-11.433-11.434c-3.132-3.131-8.207-3.131-11.338,0c-3.131,3.131-3.131,8.207,0,11.337
	l17.102,17.102c3.089,3.088,8.249,3.088,11.338,0l34.205-34.205c3.131-3.131,3.131-8.207,0-11.337
	C215.782,195.894,210.707,195.894,207.575,199.025z"/>
<path d="M307.307,460.693c37.426,0,67.875-30.448,67.875-67.875s-30.449-67.875-67.875-67.875s-67.875,30.448-67.875,67.875
	S269.881,460.693,307.307,460.693z M307.307,340.977c28.585,0,51.841,23.256,51.841,51.841c0,28.585-23.256,51.841-51.841,51.841
	s-51.841-23.256-51.841-51.841C255.466,364.233,278.722,340.977,307.307,340.977z"/>
<path d="M275.985,424.14c3.089,3.088,8.249,3.088,11.338,0l19.984-19.984l19.984,19.984c3.261,3.26,8.766,3.041,11.764-0.46
	c2.686-3.137,2.493-7.959-0.425-10.877l-19.984-19.985l19.985-19.985c3.131-3.131,3.131-8.207,0-11.337
	c-3.132-3.131-8.207-3.131-11.338,0l-19.985,19.984l-19.984-19.984c-3.132-3.131-8.207-3.131-11.338,0
	c-3.131,3.131-3.131,8.207,0,11.337l19.985,19.985l-19.985,19.985C272.855,415.933,272.855,421.01,275.985,424.14z"/>
<path d="M281.654,195.608h68.409c4.428,0,8.017-3.589,8.017-8.017s-3.588-8.017-8.017-8.017h-68.409
	c-4.428,0-8.017,3.589-8.017,8.017S277.226,195.608,281.654,195.608z"/>
<path d="M281.654,229.812h68.409c4.428,0,8.017-3.589,8.017-8.017s-3.588-8.017-8.017-8.017h-68.409
	c-4.428,0-8.017,3.589-8.017,8.017S277.226,229.812,281.654,229.812z"/>
<path d="M281.654,264.017h68.409c4.428,0,8.017-3.589,8.017-8.017c0-4.427-3.588-8.017-8.017-8.017h-68.409
	c-4.428,0-8.017,3.589-8.017,8.017C273.637,260.427,277.226,264.017,281.654,264.017z"/>
<path d="M213.245,359.148h-68.409c-4.428,0-8.017,3.589-8.017,8.017c0,4.427,3.588,8.017,8.017,8.017h68.409
	c4.428,0,8.017-3.589,8.017-8.017C221.262,362.738,217.673,359.148,213.245,359.148z"/>
<path d="M213.245,393.353h-68.409c-4.428,0-8.017,3.589-8.017,8.017c0,4.427,3.588,8.017,8.017,8.017h68.409
	c4.428,0,8.017-3.589,8.017-8.017C221.262,396.942,217.673,393.353,213.245,393.353z"/>
<path d="M213.245,427.557h-68.409c-4.428,0-8.017,3.589-8.017,8.017c0,4.427,3.588,8.017,8.017,8.017h68.409
	c4.428,0,8.017-3.589,8.017-8.017C221.262,431.147,217.673,427.557,213.245,427.557z"/>
<g>
</g>
<g>
</g>
<g>
</g>
<g>
</g>
<g>
</g>
<g>
</g>
<g>
</g>
<g>
</g>
<g>
</g>
<g>
</g>
<g>
</g>
<g>
</g>
<g>
</g>
<g>
</g>
<g>
</g>
</svg>
